<?xml version="1.0" encoding="utf-8"?>
<!-- Generator: Adobe Illustrator 23.1.0, SVG Export Plug-In . SVG Version: 6.00 Build 0)  -->
<svg version="1.1" id="Layer_1" xmlns="http://www.w3.org/2000/svg" xmlns:xlink="http://www.w3.org/1999/xlink" x="0px" y="0px"
	 viewBox="0 0 1080 499" style="enable-background:new 0 0 1080 499;" xml:space="preserve">
<style type="text/css">
	.st0{fill:#FEFEFD;}
</style>
<path class="st0" d="M1079.3,245.79c-0.94-2.96-2.89-5.38-5.85-7.25c-2.34-1.25-4.6-1.87-6.78-1.87c-0.94,0-1.79,0.08-2.57,0.23
	c-3.43,0.63-6.24,2.57-8.42,5.85c-5.77,9.36-15.05,15.75-27.83,19.18c-0.47-2.65-1.09-5.3-1.87-7.95
	c-9.98-36.01-34.22-67.74-72.73-95.18c-1.87-1.25-3.9-1.87-6.08-1.87c-1.56,0-3.27,0.39-5.14,1.17c-4.21,1.87-6.78,4.68-7.72,8.42
	c-6.54,25.06-17.04,50.43-31.5,76.11c-0.18,0.27-0.37,0.54-0.54,0.83c-9.67,16.53-20.11,30.48-31.34,41.86
	c-13.88,14.19-28.22,23.54-43.03,28.06c-5.46,1.72-10.92,2.57-16.37,2.57c-1.87,0-3.74-0.08-5.61-0.23
	c-8.27-0.94-15.05-3.58-20.35-7.95c-8.11-6.86-12.16-17.62-12.16-32.27v-2.34c0-1.56,0.08-3.12,0.23-4.68
	c12.63,4.84,25.18,7.25,37.65,7.25c2.49,0,4.99-0.08,7.48-0.23c22.45-1.87,40.61-11.61,54.49-29.23
	c11.07-14.03,16.61-28.45,16.61-43.27v-0.7c0-11.54-3.74-21.44-11.23-29.7c-7.64-8.42-17.23-13.1-28.77-14.03
	c-2.19-0.15-4.37-0.23-6.55-0.23c-18.4,0-35.94,7.64-52.62,22.92c-17.15,15.75-29.62,35.55-37.42,59.4
	c-0.02,0.06-0.03,0.12-0.05,0.18c-0.48,0.59-0.93,1.22-1.35,1.93l-10.76,19.65c-4.53,8.27-8.19,14.73-10.99,19.41l-4.91,8.19
	c-1.87,2.96-3.59,5.61-5.15,7.95c-4.37,5.77-8.73,10.29-13.1,13.57c-1.09,0.63-2.42,1.25-3.98,1.87c-2.03,0.63-3.9,0.94-5.61,0.94
	h-0.47c-4.37,0-6.78-1.95-7.25-5.85c-0.16-1.4-0.23-2.88-0.23-4.44c0-4.05,0.55-8.89,1.64-14.5c0.47-2.81,1.24-6.16,2.34-10.06
	l1.17-4.91l1.4-4.91l3.27-11.93l3.51-11.69c2.65-9.67,4.68-17.69,6.08-24.09c2.02-9.04,3.04-17.31,3.04-24.79
	c0-6.23-0.7-11.85-2.11-16.84c-4.06-14.81-14.03-22.37-29.93-22.69h-0.94c-14.97,0-29,8.27-42.1,24.79
	c-4.99,6.24-10.06,13.88-15.2,22.92c-2.03,3.43-4.13,7.25-6.32,11.46c0.15-0.94,0.23-1.79,0.23-2.57c0.15-2.96,0.23-5.77,0.23-8.42
	c0-14.81-2.81-26.66-8.42-35.55c-3.43-5.61-8.34-9.36-14.74-11.23c-2.96-0.94-6-1.4-9.12-1.4c-3.12,0-6.4,0.47-9.82,1.4
	c-12.48,3.27-24.25,13.56-35.32,30.87c-12.94,19.8-24.56,45.6-34.85,77.41l-3.04,10.06l-1.17,4.44c1.09-14.34,3.82-30.95,8.19-49.81
	c3.27-14.34,7.17-28.06,11.69-41.16l3.98-11.23c0.15-0.31,0.39-0.94,0.7-1.87l0.7-1.4l0.23-0.94c0.15-0.47,0.23-0.78,0.23-0.94
	l-0.7,1.87c0.62-1.71,0.94-3.35,0.94-4.91c0-1.71-0.32-3.43-0.94-5.15c-1.25-3.12-3.43-5.53-6.55-7.25
	c-2.19-1.25-4.29-1.87-6.32-1.87c-0.78,0-1.56,0.08-2.34,0.23c-3.27,0.78-5.69,2.96-7.25,6.55c-11.45,27.12-19.43,54.3-23.98,81.53
	l-12.73,22.07c-5.46,9.2-10.52,17-15.2,23.39l-2.81,3.98l-3.27,4.21c-2.65,3.27-5.15,6-7.48,8.19c-6.08,5.61-12.01,8.42-17.77,8.42
	h-0.94c-4.68-0.31-7.95-2.65-9.82-7.02c-2.18-5.3-3.27-12.63-3.27-21.98v-3.51c0.62-16.21,4.75-38.35,12.4-66.42
	c0.78-2.81,1.87-6.31,3.27-10.52l3.51-10.76c2.81-8.73,4.52-15.9,5.15-21.52v-1.64c0-4.83-1.87-8.73-5.61-11.69
	c-2.34-2.02-4.76-3.04-7.25-3.04c-2.18,0-4.44,0.7-6.78,2.11c-2.34,1.4-4.21,3.67-5.61,6.78c-0.63,1.09-1.25,2.42-1.87,3.98
	l-1.4,4.21l-4.44,12.86l-0.7,2.1c-9.35-20.89-24.87-31.41-46.54-31.57h-0.94c-23.08,0-44.52,10.29-64.31,30.87
	c-14.82,15.25-25.78,32.65-32.92,52.19c-0.52,0.62-1.01,1.31-1.46,2.07l-6.31,11.69l-6.55,11.69c-5.15,9.35-9.59,16.99-13.33,22.92
	l-2.57,3.98l-2.81,4.21c-2.19,3.12-4.29,5.77-6.31,7.95c-5.15,5.77-10.6,9.12-16.37,10.06c-0.47,0.16-0.94,0.23-1.4,0.23
	c-1.25,0-2.57-0.31-3.98-0.94c-1.56-0.62-2.73-1.32-3.51-2.11c-3.43-2.96-6.39-7.33-8.89-13.1c-4.99-12-7.72-27.21-8.19-45.6
	c28.06-49.11,49.97-90.04,65.72-122.78l5.38-11.23l5.38-11.46c4.05-8.89,7.48-16.84,10.29-23.85c7.02-18.4,11.07-34.85,12.16-49.35
	c0.15-1.25,0.23-2.49,0.23-3.74c0-9.51-2.81-17.31-8.42-23.39c-4.99-5.46-11.23-8.19-18.71-8.19c-2.5,0-5.14,0.31-7.95,0.94
	c-7.33,1.72-14.27,5.69-20.81,11.93c-5.15,4.68-10.29,10.99-15.43,18.94c-20.9,32.12-36.33,78.35-46.31,138.68
	c-4.68,28.53-7.25,51.68-7.72,69.46v5.31c-24.11,39.96-52.1,63.37-83.96,70.23c-4.06,0.94-6.86,3.43-8.42,7.48
	c-0.63,1.72-0.94,3.43-0.94,5.15c0,2.19,0.54,4.29,1.64,6.31c18.24,32.43,27.36,63.46,27.36,93.08v4.91
	c-0.47,11.85-3.51,21.98-9.12,30.4c-4.99,7.33-10.92,10.99-17.77,10.99c-2.96,0-6.16-0.7-9.59-2.11c-8.1-3.43-13.17-13.1-15.2-29
	c-0.78-5.61-1.17-12.16-1.17-19.64c0-2.5,0.08-5.38,0.23-8.65v-3.74l0.23-3.27c0.94-31.65,7.02-74.76,18.24-129.33
	c1.56-7.48,3.12-14.73,4.68-21.75c24.01-18.86,44.04-44.67,60.1-77.41c14.65-29.78,25.02-63.3,31.1-100.56l0.7-3.74l0.7-3.98
	l1.17-8.65c1.09-6.7,1.71-12.63,1.87-17.77c0.15-2.18,0.23-4.36,0.23-6.55c0-11.07-1.79-20.11-5.38-27.13
	C135.64,3.59,130.65,0,124.42,0c-2.18,0-4.44,0.39-6.78,1.17c-7.8,2.5-14.66,7.95-20.58,16.37c-7.8,10.91-14.89,24.79-21.28,41.63
	c-2.34,6.4-4.91,13.88-7.72,22.45l-3.51,11.23l-3.51,10.76c-12.79,41.48-25.64,92.46-38.59,152.95
	C8.58,321.26,1.17,371.62,0.23,407.63c-0.15,4.36-0.23,8.5-0.23,12.4c0,3.74,0.08,7.17,0.23,10.29c0.47,9.2,1.4,17.38,2.81,24.56
	c4.06,18.71,12.24,31.57,24.56,38.59c6.39,3.58,13.64,5.38,21.75,5.38h1.87c8.57-0.32,16.52-2.5,23.85-6.55
	c14.19-7.95,23.15-21.67,26.89-41.16c1.71-8.58,2.57-17.31,2.57-26.19c0-27.75-7.87-57.38-23.62-88.87
	c24-8.73,45.79-25.56,65.39-50.44c1.66,8.17,3.85,15.81,6.64,22.85c8.73,21.51,22.14,32.51,40.22,32.97h1.17
	c16.84,0,32.51-10.52,47.01-31.57c1.66-2.33,3.38-4.95,5.16-7.79c1.18,3.65,2.64,7.19,4.43,10.6c8.58,16.22,22.92,25.57,43.03,28.06
	c3.43,0.47,6.7,0.7,9.82,0.7c14.97,0,28.69-4.44,41.16-13.33c12-8.57,23.31-21.05,33.91-37.42v2.81
	c0.47,10.92,2.65,20.19,6.55,27.83c4.52,8.58,11.38,14.5,20.58,17.78c4.36,1.56,8.81,2.34,13.33,2.34c4.68,0,9.35-0.85,14.03-2.57
	c14.13-5.28,27.49-16.99,40.08-35.11c0.13,3.36,0.41,6.65,0.85,9.85c0.63,6.24,1.79,11.46,3.51,15.67
	c3.27,8.11,7.95,12.16,14.03,12.16c2.65,0,5.61-0.78,8.89-2.34c3.89-1.87,7.17-5.22,9.82-10.06c1.09-1.87,2.1-4.13,3.04-6.78
	l1.4-3.27l0.94-3.27c1.71-5.14,4.05-12.78,7.02-22.92l3.27-11.46l3.51-11.46c5.77-16.99,10.83-30.4,15.2-40.22
	c7.02-15.12,14.58-27.28,22.68-36.48c4.99-5.61,9.36-8.42,13.1-8.42h0.94c4.36,0.32,6.78,4.44,7.25,12.4
	c0.15,2.34,0.23,4.76,0.23,7.25c0,5.3-0.31,11.23-0.94,17.77c-1.4,13.25-4.6,30.87-9.59,52.85l-4.91,20.81
	c-2.19,8.89-3.82,15.9-4.91,21.05l-0.47,2.57l-0.7,2.81c-0.31,2.18-0.47,4.06-0.47,5.61c0.47,5.3,2.96,9.12,7.48,11.46
	c2.02,1.09,4.05,1.64,6.08,1.64c2.49,0,4.99-0.94,7.48-2.81c3.27-2.34,6.08-6.55,8.42-12.63c0.78-1.71,1.71-4.21,2.81-7.48
	l1.17-3.74l1.4-3.27c8.42-21.52,15.04-37.73,19.88-48.64c9.98-22.45,19.49-40.38,28.53-53.79c5.15-7.79,10.14-13.87,14.97-18.24
	c0.47-0.62,1.09-1.25,1.87-1.87c1.09-0.78,2.1-1.48,3.04-2.11c2.65-1.71,5.06-2.88,7.25-3.51c0.94-0.31,1.79-0.47,2.57-0.47
	c4.52,0,6.78,3.74,6.78,11.23c0,6.24-0.86,13.25-2.57,21.05l-2.57,10.29l-2.81,10.29c-0.78,2.81-1.8,6.16-3.04,10.06l-1.64,5.15
	l-1.64,5.38c-2.81,9.04-4.91,16.45-6.32,22.22c-2.03,8.73-3.04,16.69-3.04,23.85c0,7.48,1.09,14.03,3.27,19.65
	c2.65,6.71,7.02,11.77,13.1,15.2c5.15,2.81,10.83,4.21,17.07,4.21h2.81c11.38-0.78,22.06-6.47,32.04-17.07
	c3.89-4.05,7.87-9.04,11.93-14.97c1.94-2.79,4.1-6.12,6.48-9.95c0.51,1.78,1.07,3.55,1.71,5.28c7.64,20.43,23.54,32.51,47.71,36.25
	c4.05,0.63,8.1,0.94,12.16,0.94c20.73,0,41.24-7.95,61.51-23.85c19.12-14.93,36.23-35.28,51.32-61.06c0.2-0.3,0.41-0.6,0.6-0.92
	c12.32-21.67,21.9-43.03,28.77-64.08c19.8,16.53,34.14,35.31,43.03,56.36c2.49,5.93,4.29,11.62,5.38,17.07h-8.19l-7.25-0.23
	l-7.02-0.23h-3.04c-9.98,0-17.85,0.7-23.62,2.11c-13.56,3.12-23,11.31-28.3,24.56c-2.03,4.99-3.04,9.82-3.04,14.5
	c0,7.8,2.96,15.05,8.89,21.75c8.26,9.35,19.8,14.03,34.61,14.03c1.56,0,3.19-0.08,4.91-0.23c16.21-0.94,29.7-6,40.46-15.2
	c9.67-8.26,15.67-19.41,18.01-33.44c0.31-1.71,0.54-3.51,0.7-5.38c3.89-0.78,7.48-1.71,10.76-2.81
	c16.84-5.46,29.47-15.05,37.89-28.77c1.4-2.02,2.1-4.13,2.1-6.31C1080,248.21,1079.77,247.04,1079.3,245.79z M173.53,188.97
	c6.86-49.73,18.4-91.28,34.61-124.65c3.89-8.1,8.19-15.59,12.86-22.45c5.61-8.26,10.68-13.02,15.2-14.27
	c0.94-0.15,1.71-0.23,2.34-0.23c2.49,0,3.74,1.56,3.74,4.68c-0.16,5.46-1.17,11.62-3.04,18.48c-0.63,2.81-1.48,5.85-2.57,9.12
	l-3.04,8.89c-5.15,14.19-12.55,31.42-22.22,51.69c-10.29,21.36-23.15,46.15-38.59,74.37C172.98,192.71,173.21,190.84,173.53,188.97z
	 M77.18,139.85c11.38-40.38,21.75-70.39,31.11-90.04c2.02-4.21,4.13-8.19,6.31-11.93c1.25-2.18,2.42-4.05,3.51-5.61v7.72
	c0,7.8-0.63,16.22-1.87,25.26c-4.68,34.93-13.49,66.73-26.43,95.42c-8.89,19.8-19.18,36.72-30.87,50.75
	C64.86,186.16,70.94,162.3,77.18,139.85z M382.37,226.38c-2.18,5.46-4.13,10.21-5.85,14.27c-2.34,5.61-4.68,10.84-7.02,15.67
	c-6.08,12.16-12.24,22.45-18.48,30.87c-14.5,19.02-30.17,28.53-47.01,28.53c-3.12,0-6.31-0.31-9.59-0.94
	c-16.69-3.43-25.02-14.58-25.02-33.44v-2.11c0.15-7.79,1.71-16.29,4.68-25.49c2.49-7.95,5.61-15.2,9.35-21.75
	c12.16-21.83,27.05-36.48,44.67-43.97c6.55-2.81,12.63-4.21,18.24-4.21c2.96,0,5.77,0.39,8.42,1.17
	c8.73,2.34,14.81,8.34,18.24,18.01c1.4,3.74,3.74,6.32,7.02,7.72c1.87,0.78,3.74,1.17,5.61,1.17c0.78,0,1.48-0.08,2.1-0.23
	C385.88,217.26,384.09,222.17,382.37,226.38z M787.67,224.28c9.67-16.53,21.83-28.3,36.48-35.31c7.17-3.43,14.03-5.15,20.58-5.15
	h0.94c8.73,0.31,14.5,3.98,17.31,10.99c0.94,2.34,1.4,4.91,1.4,7.72c0,2.5-0.39,5.15-1.17,7.95c-1.09,4.68-3.2,9.51-6.32,14.5
	c-9.2,14.97-22.37,23.23-39.52,24.79c-2.19,0.16-4.29,0.23-6.32,0.23c-10.6,0-21.36-2.34-32.27-7.02
	C781.12,236.6,784.08,230.36,787.67,224.28z M997.91,302.16c-4.68,6.4-12.08,10.45-22.22,12.16c-2.5,0.47-4.76,0.78-6.78,0.94
	c-1.4,0.16-2.73,0.23-3.98,0.23c-1.25,0-2.42-0.08-3.51-0.23c-5.93-0.47-9.98-2.42-12.16-5.85c-1.09-1.56-1.64-3.27-1.64-5.15
	c0-0.94,0.15-1.95,0.47-3.04c0.78-2.81,2.34-5.15,4.68-7.02c3.74-2.81,9.59-4.21,17.54-4.21h1.17l5.38,0.23l5.15,0.47
	c2.96,0.16,5.3,0.23,7.02,0.23h2.34c4.05,0,7.95-0.15,11.69-0.47C1002.12,294.83,1000.4,298.73,997.91,302.16z"/>
</svg>
